<?xml version="1.0" standalone="no"?><!DOCTYPE svg PUBLIC "-//W3C//DTD SVG 1.1//EN" "http://www.w3.org/Graphics/SVG/1.1/DTD/svg11.dtd"><svg t="1685454763635" class="icon" viewBox="0 0 1024 1024" version="1.1" xmlns="http://www.w3.org/2000/svg" p-id="15012" xmlns:xlink="http://www.w3.org/1999/xlink" width="32" height="32"><path d="M729.6 311.466667l59.733333-59.733334c85.333333 102.4 81.066667 251.733333-12.8 345.6-68.266667 68.266667-162.133333 89.6-247.466666 68.266667l-192 192-59.733334-59.733333-59.733333-59.733334-59.733333-59.733333 192-192c-21.333333-85.333333 0-179.2 68.266666-247.466667 93.866667-93.866667 247.466667-98.133333 345.6-12.8l-59.733333 59.733334L640 341.333333l29.866667 29.866667 59.733333-59.733333z m38.4 89.6l-34.133333 34.133333-59.733334 59.733333L520.533333 341.333333l59.733334-59.733333 34.133333-34.133333c-46.933333-4.266667-102.4 12.8-136.533333 51.2-68.266667 68.266667-68.266667 174.933333 0 243.2s174.933333 68.266667 243.2 0c34.133333-42.666667 51.2-93.866667 46.933333-140.8zM277.333333 678.4l59.733334 59.733333 110.933333-110.933333c-12.8-8.533333-21.333333-17.066667-34.133333-25.6s-21.333333-21.333333-25.6-34.133333l-110.933334 110.933333z" fill="#ffffff" p-id="15013"></path></svg>