<?xml version="1.0" standalone="no"?><!DOCTYPE svg PUBLIC "-//W3C//DTD SVG 1.1//EN" "http://www.w3.org/Graphics/SVG/1.1/DTD/svg11.dtd"><svg t="1685376552748" class="icon" viewBox="0 0 1024 1024" version="1.1" xmlns="http://www.w3.org/2000/svg" p-id="1267" width="32" height="32" xmlns:xlink="http://www.w3.org/1999/xlink"><path d="M855.36 604.864a40.64 40.64 0 0 1 40.64 40.64v209.792a40.64 40.64 0 0 1-40.64 40.64H588.288a40.64 40.64 0 0 1-40.64-40.64v-209.792a40.64 40.64 0 0 1 40.64-40.64h267.072z m-40.704 81.28H628.864v128.512h185.792V686.08zM435.84 128a40.64 40.64 0 0 1 40.576 40.64v209.792a40.64 40.64 0 0 1-40.64 40.64H168.64A40.64 40.64 0 0 1 128 378.432V168.64A40.64 40.64 0 0 1 168.64 128h267.072z m-40.768 81.216H209.28v128.512h185.792V209.28zM855.36 128a40.64 40.64 0 0 1 40.64 40.64v324.288a40.64 40.64 0 0 1-40.64 40.576H588.288a40.64 40.64 0 0 1-40.64-40.576V168.64A40.64 40.64 0 0 1 588.288 128h267.072z m-40.704 81.216H628.864v243.072h185.792V209.216zM435.84 490.432a40.64 40.64 0 0 1 40.576 40.64v324.288a40.64 40.64 0 0 1-40.64 40.64H168.64A40.64 40.64 0 0 1 128 855.36V531.072a40.64 40.64 0 0 1 40.64-40.64h267.072z m-40.768 81.216H209.28v243.072h185.792V571.648z" fill="#ffffff" fill-opacity=".88" p-id="1268"></path></svg>