<?xml version="1.0" standalone="no"?><!DOCTYPE svg PUBLIC "-//W3C//DTD SVG 1.1//EN" "http://www.w3.org/Graphics/SVG/1.1/DTD/svg11.dtd"><svg t="1685391881468" class="icon" viewBox="0 0 1024 1024" version="1.1" xmlns="http://www.w3.org/2000/svg" p-id="1562" xmlns:xlink="http://www.w3.org/1999/xlink" width="16" height="16"><path d="M512 853.333333a341.333333 341.333333 0 1 1 0-682.666666 341.333333 341.333333 0 0 1 0 682.666666z m0 85.333334c235.648 0 426.666667-191.018667 426.666667-426.666667S747.648 85.333333 512 85.333333 85.333333 276.352 85.333333 512s191.018667 426.666667 426.666667 426.666667z m0-640a42.666667 42.666667 0 0 1 42.666667 42.666666v128h128a42.666667 42.666667 0 1 1 0 85.333334h-128v128a42.666667 42.666667 0 1 1-85.333334 0v-128H341.333333a42.666667 42.666667 0 1 1 0-85.333334h128V341.333333a42.666667 42.666667 0 0 1 42.666667-42.666666z" fill="#1E90FF" p-id="1563"></path></svg>