<?xml version="1.0" standalone="no"?><!DOCTYPE svg PUBLIC "-//W3C//DTD SVG 1.1//EN" "http://www.w3.org/Graphics/SVG/1.1/DTD/svg11.dtd"><svg t="1685377314113" class="icon" viewBox="0 0 1024 1024" version="1.1" xmlns="http://www.w3.org/2000/svg" p-id="1737" xmlns:xlink="http://www.w3.org/1999/xlink" width="32" height="32"><path d="M682.688 384H341.312a42.688 42.688 0 0 1 0-85.312h341.376a42.688 42.688 0 0 1 0 85.312z m-341.376 341.312a42.688 42.688 0 0 1-42.624-42.624V512A42.688 42.688 0 1 1 384 512v170.688a42.688 42.688 0 0 1-42.688 42.624z m170.688 0a42.688 42.688 0 0 1-42.688-42.624V512a42.688 42.688 0 0 1 85.376 0v170.688a42.688 42.688 0 0 1-42.688 42.624z m170.688 0a42.688 42.688 0 0 1-42.688-42.624V512a42.688 42.688 0 1 1 85.312 0v170.688a42.688 42.688 0 0 1-42.624 42.624z m128 170.688H213.312A85.312 85.312 0 0 1 128 810.688V213.312C128 166.208 166.208 128 213.312 128h597.376C857.792 128 896 166.208 896 213.312v597.376c0 47.104-38.208 85.312-85.312 85.312zM213.312 213.312v597.376h597.376V213.312H213.312z" fill="#ffffff" fill-opacity=".88" p-id="1738"></path></svg>