<?xml version="1.0" standalone="no"?><!DOCTYPE svg PUBLIC "-//W3C//DTD SVG 1.1//EN" "http://www.w3.org/Graphics/SVG/1.1/DTD/svg11.dtd"><svg t="1685393402528" class="icon" viewBox="0 0 1024 1024" version="1.1" xmlns="http://www.w3.org/2000/svg" p-id="1269" xmlns:xlink="http://www.w3.org/1999/xlink" width="32" height="32"><path d="M0 0m256 0l512 0q256 0 256 256l0 512q0 256-256 256l-512 0q-256 0-256-256l0-512q0-256 256-256Z" fill="#1E90FF" fill-opacity="0" p-id="1270"></path><path d="M642.24 702.4A320.128 320.128 0 0 1 128 448c0-176.704 143.36-320 320.256-320a320.128 320.128 0 0 1 320.256 320 318.848 318.848 0 0 1-66.048 194.304l181.312 181.12A42.624 42.624 0 0 1 853.888 896a42.752 42.752 0 0 1-30.336-12.352l-181.312-181.248zM448.256 213.312A234.752 234.752 0 0 0 213.376 448a234.752 234.752 0 0 0 234.88 234.688A234.752 234.752 0 0 0 683.136 448a235.2 235.2 0 0 0-234.88-234.688z" fill="#1E90FF" fill-opacity=".88" p-id="1271"></path></svg>