<?xml version="1.0" standalone="no"?><!DOCTYPE svg PUBLIC "-//W3C//DTD SVG 1.1//EN" "http://www.w3.org/Graphics/SVG/1.1/DTD/svg11.dtd"><svg t="1685377178120" class="icon" viewBox="0 0 1024 1024" version="1.1" xmlns="http://www.w3.org/2000/svg" p-id="1523" xmlns:xlink="http://www.w3.org/1999/xlink" width="32" height="32"><path d="M475.52 137.472a74.752 74.752 0 0 1 72.96 0l279.04 156.608c22.592 12.672 36.48 36.032 36.48 61.312v313.216c0 25.28-13.888 48.64-36.48 61.312l-279.04 156.608a74.752 74.752 0 0 1-72.96 0l-279.04-156.608a70.464 70.464 0 0 1-36.48-61.312V355.392c0-25.28 13.888-48.64 36.48-61.312l279.04-156.608z m36.48 61.312L232.896 355.392v313.216L512 825.216l279.104-156.608V355.392L512 198.784z m0 171.584a146.56 146.56 0 0 1 126.208 70.848 138.176 138.176 0 0 1 0 141.568A146.56 146.56 0 0 1 512 653.632c-80.512 0-145.728-63.36-145.728-141.632 0-78.208 65.28-141.632 145.728-141.632z m0 70.848c-40.256 0-72.896 31.68-72.896 70.784 0 39.104 32.64 70.784 72.896 70.784S584.896 551.104 584.896 512c0-39.104-32.64-70.784-72.896-70.784z" fill="#ffffff" fill-opacity=".88" p-id="1524"></path></svg>