<?xml version="1.0" standalone="no"?><!DOCTYPE svg PUBLIC "-//W3C//DTD SVG 1.1//EN" "http://www.w3.org/Graphics/SVG/1.1/DTD/svg11.dtd"><svg t="1685377403726" class="icon" viewBox="0 0 1024 1024" version="1.1" xmlns="http://www.w3.org/2000/svg" p-id="1294" xmlns:xlink="http://www.w3.org/1999/xlink" width="32" height="32"><path d="M405.333333 128a64 64 0 1 0 0 128h213.333334a64 64 0 0 0 0-128h-213.333334zM128 298.666667a128 128 0 0 1 128-128h21.333333a42.666667 42.666667 0 0 1 0 85.333333H256a42.666667 42.666667 0 0 0-42.666667 42.666667v512a42.666667 42.666667 0 0 0 42.666667 42.666666h512a42.666667 42.666667 0 0 0 42.666667-42.666666V298.666667a42.666667 42.666667 0 0 0-42.666667-42.666667h-21.333333a42.666667 42.666667 0 1 1 0-85.333333h21.333333a128 128 0 0 1 128 128v512a128 128 0 0 1-128 128H256a128 128 0 0 1-128-128V298.666667z m170.666667 85.333333a42.666667 42.666667 0 0 1 42.666666-42.666667h341.333334a42.666667 42.666667 0 1 1 0 85.333334H341.333333a42.666667 42.666667 0 0 1-42.666666-42.666667z m0 170.666667a42.666667 42.666667 0 0 1 42.666666-42.666667h341.333334a42.666667 42.666667 0 1 1 0 85.333333H341.333333a42.666667 42.666667 0 0 1-42.666666-42.666666z m42.666666 128a42.666667 42.666667 0 1 0 0 85.333333h128a42.666667 42.666667 0 1 0 0-85.333333H341.333333z" fill="#ffffff" p-id="1295"></path></svg>