<svg xmlns="http://www.w3.org/2000/svg" xmlns:xlink="http://www.w3.org/1999/xlink" fill="none" version="1.1" width="50" height="50" viewBox="0 0 50 50"><defs><clipPath id="master_svg0_1_56"><rect x="7" y="7" width="36" height="36" rx="0"/></clipPath></defs><g><g><ellipse cx="25" cy="25" rx="25" ry="25" fill="#0073FF" fill-opacity="1"/></g><g clip-path="url(#master_svg0_1_56)"><g><path d="M38.900400000000005,26.8372L25.0809,34.5322L10.98688,26.8372C10.45411,26.5447,9.78505,26.7428,9.49738,27.2782C9.2049,27.8109,9.402989999999999,28.48,9.93838,28.7677L24.5574,36.7672C24.8874,36.959199999999996,25.3029,36.959199999999996,25.6329,36.7672L39.9759,28.7677C40.5028,28.4717,40.6885,27.8036,40.3899,27.2782C40.1088,26.7348,39.432,26.5344,38.900400000000005,26.8372ZM12.69688,21.7342L25.0809,14.72916L38.873400000000004,22.700200000000002C39.4073,22.997700000000002,40.0812,22.8137,40.3899,22.2862C40.6884,21.7519,40.5043,21.076900000000002,39.9759,20.7682L25.6344,12.49416C25.2921,12.30144,24.8741,12.30144,24.5319,12.49416L9.91139,20.7667C9.16588,21.1807,9.16588,22.2562,9.91139,22.698700000000002L24.5304,30.9727C25.0642,31.271,25.7387,31.0869,26.0469,30.5587C26.3444,30.0247,26.1604,29.3509,25.6329,29.0422L12.69688,21.7342ZM7.0148846,27.5272L7.0148846,22.010199999999998C6.888817,20.667099999999998,7.571727,19.377299999999998,8.75338,18.726660000000003L23.3709,10.451157C24.4317,9.839567,25.7405,9.850474,26.7909,10.479657L41.1339,18.75366C42.2838,19.41817,42.9492,20.6847,42.8439,22.008699999999997L42.8439,27.5257C42.9526,28.8714,42.2623,30.1559,41.0799,30.8077L26.7369,38.8057C25.6998,39.385000000000005,24.4365,39.385000000000005,23.3994,38.8057L8.780380000000001,30.8077C7.565383,30.1447,6.9323834,28.8487,7.0148835,27.5257L7.0148846,27.5272Z" fill="#FFFFFF" fill-opacity="1"/></g><g><g><g><path d="M22,19.500015258789062L22,23.500015258789062C22,23.77615525878906,22.223858,24.000015258789062,22.5,24.000015258789062C22.776142,24.000015258789062,23,23.77615525878906,23,23.500015258789062L23,21.500015258789062L23,19.500015258789062C23,19.223873258789062,22.776142,19.000015258789062,22.5,19.000015258789062C22.223858,19.000015258789062,22,19.223873258789062,22,19.500015258789062Z" fill="#0073FF" fill-opacity="1"/></g><g transform="matrix(0,1,-1,0,48.50001525878906,-3.4999847412109375)"><path d="M27.33284,22.500015258789062C26.933565,22.500015258789062,26.763013,23.065414258789062,27.021160000000002,23.370015258789063Q27.5,23.93501525878906,27.5,24.500015258789062Q27.5,25.065015258789064,27.021160000000002,25.63001525878906C26.763013,25.934615258789062,26.933565,26.500015258789062,27.33284,26.500015258789062C27.43987,26.500015258789062,27.54129,26.459835258789063,27.61464,26.38189525878906Q28.5,25.440955258789064,28.5,24.500015258789062Q28.5,23.55907525878906,27.61464,22.61814025878906C27.54129,22.540192658789064,27.43987,22.500015258789062,27.33284,22.500015258789062Z" fill="#0073FF" fill-opacity="1"/></g><g><path d="M26,23.500015258789062Q26,23.549261258789063,25.990393,23.597560258789063Q25.980785,23.645860258789064,25.96194,23.69135725878906Q25.943094,23.736854258789062,25.915735,23.777800258789064Q25.888375,23.818746258789062,25.853553,23.853568258789064Q25.818731,23.888390258789062,25.777785,23.915750258789064Q25.736839,23.94310925878906,25.691342,23.96195525878906Q25.645845,23.980800258789063,25.597545,23.990408258789063Q25.549246,24.000015258789062,25.5,24.000015258789062Q25.450754,24.000015258789062,25.402455,23.990408258789063Q25.354155,23.980800258789063,25.308658,23.96195525878906Q25.263161,23.94310925878906,25.222215,23.915750258789064Q25.181269,23.888390258789062,25.146447,23.853568258789064Q25.111625,23.818746258789062,25.0842652,23.777800258789064Q25.0569057,23.736854258789062,25.0380602,23.69135725878906Q25.0192147,23.645860258789064,25.00960736,23.597560258789063Q25,23.549261258789063,25,23.500015258789062Q25,23.450769258789062,25.00960736,23.402470258789062Q25.0192147,23.35417025878906,25.0380602,23.308673258789064Q25.0569057,23.263176258789063,25.0842652,23.22223025878906Q25.111625,23.181284258789063,25.146447,23.14646225878906Q25.181269,23.111640258789063,25.222215,23.084280458789063Q25.263161,23.056920958789064,25.308658,23.038075458789063Q25.354155,23.01922995878906,25.402455,23.009622618789063Q25.450754,23.000015258789062,25.5,23.000015258789062Q25.549246,23.000015258789062,25.597545,23.009622618789063Q25.645845,23.01922995878906,25.691342,23.038075458789063Q25.736839,23.056920958789064,25.777785,23.084280458789063Q25.818731,23.111640258789063,25.853553,23.14646225878906Q25.888375,23.181284258789063,25.915735,23.22223025878906Q25.943094,23.263176258789063,25.96194,23.308673258789064Q25.980785,23.35417025878906,25.990393,23.402470258789062Q26,23.450769258789062,26,23.500015258789062Z" fill="#0073FF" fill-opacity="1"/></g></g><g transform="matrix(-1,0,0,-1,58.000030517578125,50)"><g><path d="M29.000015258789062,25.5L29.000015258789062,29.5C29.000015258789062,29.776139999999998,29.223873258789062,30,29.500015258789062,30C29.776157258789063,30,30.000015258789062,29.776139999999998,30.000015258789062,29.5L30.000015258789062,27.5L30.000015258789062,25.5C30.000015258789062,25.223858,29.776157258789063,25,29.500015258789062,25C29.223873258789062,25,29.000015258789062,25.223858,29.000015258789062,25.5Z" fill="#0073FF" fill-opacity="1"/></g><g transform="matrix(0,1,-1,0,61.50001525878906,-4.5000152587890625)"><path d="M34.33285525878906,28.5C33.933580258789064,28.5,33.76302825878906,29.065399,34.021175258789064,29.37Q34.50001525878906,29.935,34.50001525878906,30.5Q34.50001525878906,31.065,34.021175258789064,31.63C33.76302825878906,31.9346,33.933580258789064,32.5,34.33285525878906,32.5C34.43988525878906,32.5,34.541305258789066,32.45982,34.614655258789064,32.38188Q35.50001525878906,31.44094,35.50001525878906,30.5Q35.50001525878906,29.55906,34.614655258789064,28.618125C34.541305258789066,28.5401774,34.43988525878906,28.5,34.33285525878906,28.5Z" fill="#0073FF" fill-opacity="1"/></g><g><path d="M32.00001525878906,28.5L32.00001525878906,29.5C32.00001525878906,29.77614,32.22387325878906,30,32.50001525878906,30C32.77615725878906,30,33.00001525878906,29.77614,33.00001525878906,29.5L33.00001525878906,29L33.00001525878906,28.5C33.00001525878906,28.223858,32.77615725878906,28,32.50001525878906,28C32.22387325878906,28,32.00001525878906,28.223858,32.00001525878906,28.5Z" fill="#0073FF" fill-opacity="1"/></g></g></g></g></g></svg>